<?xml version="1.0" encoding="UTF-8" standalone="no"?>
<!-- Created with Inkscape (http://www.inkscape.org/) -->

<svg
   xmlns:dc="http://purl.org/dc/elements/1.1/"
   xmlns:cc="http://creativecommons.org/ns#"
   xmlns:rdf="http://www.w3.org/1999/02/22-rdf-syntax-ns#"
   xmlns:svg="http://www.w3.org/2000/svg"
   xmlns="http://www.w3.org/2000/svg"
   xmlns:sodipodi="http://sodipodi.sourceforge.net/DTD/sodipodi-0.dtd"
   xmlns:inkscape="http://www.inkscape.org/namespaces/inkscape"
   width="64"
   height="64"
   viewBox="0 0 16.933333 16.933334"
   version="1.1"
   id="svg8"
   inkscape:version="0.92.3 (2405546, 2018-03-11)"
   sodipodi:docname="dechet_pmc02.svg">
  <defs
     id="defs2" />
  <sodipodi:namedview
     id="base"
     pagecolor="#ffffff"
     bordercolor="#666666"
     borderopacity="1.0"
     inkscape:pageopacity="0.0"
     inkscape:pageshadow="2"
     inkscape:zoom="11.313709"
     inkscape:cx="40.393639"
     inkscape:cy="35.271448"
     inkscape:document-units="mm"
     inkscape:current-layer="layer1"
     showgrid="false"
     units="px"
     showguides="true"
     inkscape:guide-bbox="true"
     inkscape:window-width="1853"
     inkscape:window-height="1025"
     inkscape:window-x="67"
     inkscape:window-y="27"
     inkscape:window-maximized="1"
     inkscape:snap-global="false">
    <sodipodi:guide
       position="8.4666667,12.113992"
       orientation="1,0"
       id="guide1570"
       inkscape:locked="false"
       inkscape:label=""
       inkscape:color="rgb(0,0,255)" />
  </sodipodi:namedview>
  <metadata
     id="metadata5">
    <rdf:RDF>
      <cc:Work
         rdf:about="">
        <dc:format>image/svg+xml</dc:format>
        <dc:type
           rdf:resource="http://purl.org/dc/dcmitype/StillImage" />
        <dc:title></dc:title>
      </cc:Work>
    </rdf:RDF>
  </metadata>
  <g
     inkscape:label="Calque 1"
     inkscape:groupmode="layer"
     id="layer1"
     transform="translate(0,-280.06665)">
    <path
       style="fill:#999999;stroke:#000000;stroke-width:0.26458332px;stroke-linecap:butt;stroke-linejoin:miter;stroke-opacity:1"
       d="m 4.3965836,293.16466 c 0.2172405,1.10523 0.1873457,3.14254 4.0224059,3.13374 3.9836825,-0.009 3.4747285,-1.92936 3.9756345,-2.94666 -2.34373,-3.33037 -5.8761665,-3.08699 -7.9980404,-0.18708 z"
       id="path2192"
       inkscape:connector-curvature="0"
       sodipodi:nodetypes="cscc" />
    <path
       style="fill:#ff0000;fill-opacity:0.99492385;stroke:#000000;stroke-width:0.26458332;stroke-linecap:butt;stroke-linejoin:miter;stroke-miterlimit:4;stroke-dasharray:none;stroke-opacity:1"
       d="m 4.7471472,282.40054 c -6.493e-4,0.37646 -0.4755079,1.40877 -0.4755079,1.40877 0,0 -0.1027481,6.4466 -0.09912,9.19164 0.2136036,2.03203 2.800101,2.41568 4.115143,2.43114 1.6740446,-0.0966 4.2948507,-0.25907 4.4337177,-2.1736 0.09656,-2.60954 0.04898,-9.14436 0.04898,-9.14436 l -0.530441,-1.70791 c 0.537864,-1.60078 -8.590666,-1.55169 -7.4927889,-0.006 z"
       id="path1548"
       inkscape:connector-curvature="0"
       sodipodi:nodetypes="ccccccccc" />
    <path
       style="fill:#808080;stroke:#000000;stroke-width:0.26458332px;stroke-linecap:butt;stroke-linejoin:miter;stroke-opacity:1"
       d="m 4.6070581,282.03288 c 0.2713996,-0.64024 2.5724693,-0.81851 3.8820898,-0.84189 1.3096206,-0.0234 3.5296591,0.23474 3.8353171,0.79512 0.280633,0.5145 -2.152202,0.83303 -3.9054753,0.79513 -2.5969336,-0.0561 -3.9736608,-0.36683 -3.8119316,-0.74836 z"
       id="path2196"
       inkscape:connector-curvature="0"
       sodipodi:nodetypes="scsss" />
  </g>
</svg>
