<?xml version="1.0" encoding="UTF-8" standalone="no"?>
<!-- Created with Inkscape (http://www.inkscape.org/) -->

<svg
   xmlns:dc="http://purl.org/dc/elements/1.1/"
   xmlns:cc="http://creativecommons.org/ns#"
   xmlns:rdf="http://www.w3.org/1999/02/22-rdf-syntax-ns#"
   xmlns:svg="http://www.w3.org/2000/svg"
   xmlns="http://www.w3.org/2000/svg"
   xmlns:sodipodi="http://sodipodi.sourceforge.net/DTD/sodipodi-0.dtd"
   xmlns:inkscape="http://www.inkscape.org/namespaces/inkscape"
   width="64"
   height="64"
   viewBox="0 0 16.933333 16.933334"
   version="1.1"
   id="svg8"
   inkscape:version="0.92.3 (2405546, 2018-03-11)"
   sodipodi:docname="dechet_verrecolore01.svg">
  <defs
     id="defs2">
    <filter
       inkscape:collect="always"
       style="color-interpolation-filters:sRGB"
       id="filter9271"
       x="-0.14451644"
       width="1.2890329"
       y="-0.13753275"
       height="1.2750655">
      <feGaussianBlur
         inkscape:collect="always"
         stdDeviation="0.15728018"
         id="feGaussianBlur9273" />
    </filter>
  </defs>
  <sodipodi:namedview
     id="base"
     pagecolor="#ffffff"
     bordercolor="#666666"
     borderopacity="1.0"
     inkscape:pageopacity="0.0"
     inkscape:pageshadow="2"
     inkscape:zoom="11.313709"
     inkscape:cx="34.105562"
     inkscape:cy="31.288374"
     inkscape:document-units="mm"
     inkscape:current-layer="layer1"
     showgrid="false"
     units="px"
     showguides="true"
     inkscape:guide-bbox="true"
     inkscape:window-width="1920"
     inkscape:window-height="1017"
     inkscape:window-x="-8"
     inkscape:window-y="100"
     inkscape:window-maximized="1"
     inkscape:snap-global="false">
    <sodipodi:guide
       position="8.4666667,12.113992"
       orientation="1,0"
       id="guide1570"
       inkscape:locked="false"
       inkscape:label=""
       inkscape:color="rgb(0,0,255)" />
  </sodipodi:namedview>
  <metadata
     id="metadata5">
    <rdf:RDF>
      <cc:Work
         rdf:about="">
        <dc:format>image/svg+xml</dc:format>
        <dc:type
           rdf:resource="http://purl.org/dc/dcmitype/StillImage" />
        <dc:title />
      </cc:Work>
    </rdf:RDF>
  </metadata>
  <g
     inkscape:label="Calque 1"
     inkscape:groupmode="layer"
     id="layer1"
     transform="translate(0,-280.06665)">
    <circle
       style="opacity:1;vector-effect:none;fill:#ff0000;fill-opacity:1;fill-rule:evenodd;stroke:none;stroke-width:0.02784885;stroke-linecap:butt;stroke-linejoin:miter;stroke-miterlimit:15.19999981;stroke-dasharray:none;stroke-dashoffset:0;stroke-opacity:1"
       id="path839"
       cx="8.4666662"
       cy="288.53333"
       r="8.4666662" />
    <path
       style="fill:#a8641e;fill-opacity:1;stroke:#000000;stroke-width:0.25784224;stroke-linecap:butt;stroke-linejoin:miter;stroke-miterlimit:4;stroke-dasharray:none;stroke-opacity:1"
       d="m 6.9881223,281.65582 c 0,0 -0.4312276,2.8412 -0.6526733,3.19238 -0.4116395,0.65276 -1.0750103,1.00048 -1.3053457,1.65443 -0.2371827,0.6734 -0.085131,8.71493 -0.085131,8.71493 0,0 -0.1702624,1.32822 3.2066104,1.28161 3.3768743,-0.0466 3.6606433,-0.62915 3.7173973,-1.35151 0.05676,-0.72236 0.189162,-6.72318 0.141886,-8.06247 -0.0379,-1.07371 -1.106704,-1.71271 -1.362099,-2.07389 -0.527218,-0.7456 -0.7094274,-3.28557 -0.7094274,-3.28557 0,0 0.1418864,-0.0233 0.1702624,-0.23303 0.02838,-0.2097 -0.2095589,-0.2101 -0.2553936,-0.46602 -0.025116,-0.14023 0.2837706,-0.15147 0.1560746,-0.41944 -0.1344285,-0.28211 -2.9937834,-0.32623 -3.1356692,-0.0466 -0.141885,0.27963 0.2270173,0.25632 0.2270173,0.44273 0,0.18642 -0.3693754,0.28436 -0.3405257,0.4777 0.021501,0.14409 0.2270163,0.17473 0.2270163,0.17473 z"
       id="path7865"
       inkscape:connector-curvature="0"
       sodipodi:nodetypes="csscsssscssssssc" />
    <path
       style="fill:#000000;stroke:none;stroke-width:0.03636596px;stroke-linecap:butt;stroke-linejoin:miter;stroke-opacity:1"
       d="m 7.1867622,280.96842 c 0,0 0.6556881,0.18442 1.2232292,0.18442 0.5675422,0 1.3023315,-0.18442 1.3023315,-0.18442 0,0 -0.7347893,0.11445 -1.4158393,0.11445 -0.6810506,0 -1.1097214,-0.11445 -1.1097214,-0.11445 z"
       id="path7867"
       inkscape:connector-curvature="0"
       sodipodi:nodetypes="cscsc" />
    <path
       style="fill:#000000;stroke:none;stroke-width:0.03636596px;stroke-linecap:butt;stroke-linejoin:miter;stroke-opacity:1"
       d="m 7.2009508,281.66748 c 0,0 0.632898,0.18441 1.2004395,0.18441 0.5675416,0 1.3251212,-0.18441 1.3251212,-0.18441 0,0 -0.7575796,0.11444 -1.4386295,0.11444 -0.6810498,0 -1.0869312,-0.11444 -1.0869312,-0.11444 z"
       id="path7867-7"
       inkscape:connector-curvature="0"
       sodipodi:nodetypes="cscsc" />
    <path
       style="fill:#000000;fill-opacity:0.28934015;stroke:none;stroke-width:0.25784224px;stroke-linecap:butt;stroke-linejoin:miter;stroke-opacity:1"
       d="m 5.161193,295.39822 c 0,0 0.7976587,-0.63812 3.3045861,-0.66091 2.5069269,-0.0228 3.1222649,0.75208 3.1222649,0.75208 0,0 -1.435787,-0.68372 -3.0994746,-0.59255 -1.6636881,0.0911 -1.2762538,-0.0228 -3.3273764,0.50138 z"
       id="path7888"
       inkscape:connector-curvature="0" />
    <ellipse
       style="opacity:0.92000002;fill:#ffffff;fill-opacity:0.48730965;stroke:none;stroke-width:0.26429936;stroke-miterlimit:4;stroke-dasharray:none;filter:url(#filter9271)"
       id="path8561"
       cx="-74.243477"
       cy="278.62848"
       rx="1.2962284"
       ry="1.3814652"
       transform="matrix(0.93411867,-0.27769643,0.28370922,0.93231007,0.21570866,7.241498)" />
  </g>
</svg>
