<?xml version="1.0" encoding="UTF-8" standalone="no"?>
<!-- Created with Inkscape (http://www.inkscape.org/) -->

<svg
   xmlns:dc="http://purl.org/dc/elements/1.1/"
   xmlns:cc="http://creativecommons.org/ns#"
   xmlns:rdf="http://www.w3.org/1999/02/22-rdf-syntax-ns#"
   xmlns:svg="http://www.w3.org/2000/svg"
   xmlns="http://www.w3.org/2000/svg"
   xmlns:sodipodi="http://sodipodi.sourceforge.net/DTD/sodipodi-0.dtd"
   xmlns:inkscape="http://www.inkscape.org/namespaces/inkscape"
   width="64"
   height="64"
   viewBox="0 0 16.933333 16.933334"
   version="1.1"
   id="svg8"
   inkscape:version="0.92.3 (2405546, 2018-03-11)"
   sodipodi:docname="dechet_verreincolore02.svg">
  <defs
     id="defs2">
    <filter
       inkscape:collect="always"
       style="color-interpolation-filters:sRGB"
       id="filter9271"
       x="-0.14451644"
       width="1.2890329"
       y="-0.13753275"
       height="1.2750655">
      <feGaussianBlur
         inkscape:collect="always"
         stdDeviation="0.15728018"
         id="feGaussianBlur9273" />
    </filter>
  </defs>
  <sodipodi:namedview
     id="base"
     pagecolor="#ffffff"
     bordercolor="#666666"
     borderopacity="1.0"
     inkscape:pageopacity="0.0"
     inkscape:pageshadow="2"
     inkscape:zoom="8.0000003"
     inkscape:cx="22.54689"
     inkscape:cy="31.646716"
     inkscape:document-units="mm"
     inkscape:current-layer="layer1"
     showgrid="false"
     units="px"
     showguides="true"
     inkscape:guide-bbox="true"
     inkscape:window-width="1920"
     inkscape:window-height="1017"
     inkscape:window-x="-8"
     inkscape:window-y="100"
     inkscape:window-maximized="1"
     inkscape:snap-global="false">
    <sodipodi:guide
       position="8.4666667,12.113992"
       orientation="1,0"
       id="guide1570"
       inkscape:locked="false"
       inkscape:label=""
       inkscape:color="rgb(0,0,255)" />
  </sodipodi:namedview>
  <metadata
     id="metadata5">
    <rdf:RDF>
      <cc:Work
         rdf:about="">
        <dc:format>image/svg+xml</dc:format>
        <dc:type
           rdf:resource="http://purl.org/dc/dcmitype/StillImage" />
        <dc:title />
      </cc:Work>
    </rdf:RDF>
  </metadata>
  <g
     inkscape:label="Calque 1"
     inkscape:groupmode="layer"
     id="layer1"
     transform="translate(0,-280.06665)">
    <circle
       style="opacity:1;vector-effect:none;fill:#ff0000;fill-opacity:1;fill-rule:evenodd;stroke:none;stroke-width:0.02784885;stroke-linecap:butt;stroke-linejoin:miter;stroke-miterlimit:15.19999981;stroke-dasharray:none;stroke-dashoffset:0;stroke-opacity:1"
       id="path839"
       cx="8.4666662"
       cy="288.53333"
       r="8.4666662" />
    <path
       style="fill:#ffffff;fill-opacity:0.96610173;stroke:#000000;stroke-width:0.251876;stroke-linecap:butt;stroke-linejoin:miter;stroke-miterlimit:4;stroke-dasharray:none;stroke-opacity:1"
       d="m 7.0121576,281.88612 c 0,0 -0.4212492,2.77547 -0.637571,3.1185 -0.4021144,0.63767 -1.0501353,0.97734 -1.275141,1.61616 -0.2316946,0.65781 -0.08316,8.51328 -0.08316,8.51328 0,0 -0.1663226,1.29747 3.1324121,1.25194 3.2987353,-0.0456 3.5759393,-0.61459 3.6313793,-1.32022 0.05544,-0.70565 0.184784,-6.56762 0.138604,-7.87593 -0.03702,-1.04887 -1.081097,-1.67307 -1.330582,-2.02589 -0.515018,-0.72835 -0.6930115,-3.20955 -0.6930115,-3.20955 0,0 0.1386025,-0.0228 0.1663225,-0.22763 0.02772,-0.20486 -0.2047099,-0.20524 -0.2494839,-0.45524 -0.024535,-0.137 0.2772029,-0.14798 0.1524623,-0.40974 -0.1313171,-0.27557 -2.9245089,-0.31867 -3.0631116,-0.0456 -0.1386019,0.27317 0.2217644,0.25039 0.2217644,0.4325 0,0.1821 -0.3608284,0.27777 -0.3326464,0.46664 0.021004,0.14075 0.2217634,0.17068 0.2217634,0.17068 z"
       id="path7865"
       inkscape:connector-curvature="0"
       sodipodi:nodetypes="csscsssscssssssc" />
    <path
       style="fill:#000000;stroke:none;stroke-width:0.03552449px;stroke-linecap:butt;stroke-linejoin:miter;stroke-opacity:1"
       d="m 7.2062012,281.21463 c 0,0 0.640516,0.18015 1.1949246,0.18015 0.5544099,0 1.2721968,-0.18015 1.2721968,-0.18015 0,0 -0.7177869,0.11179 -1.3830779,0.11179 -0.6652918,0 -1.0840435,-0.11179 -1.0840435,-0.11179 z"
       id="path7867"
       inkscape:connector-curvature="0"
       sodipodi:nodetypes="cscsc" />
    <path
       style="fill:#000000;stroke:none;stroke-width:0.03552449px;stroke-linecap:butt;stroke-linejoin:miter;stroke-opacity:1"
       d="m 7.2200614,281.8975 c 0,0 0.6182533,0.18016 1.1726626,0.18016 0.554409,0 1.2944589,-0.18016 1.2944589,-0.18016 0,0 -0.7400499,0.1118 -1.4053408,0.1118 -0.665291,0 -1.0617807,-0.1118 -1.0617807,-0.1118 z"
       id="path7867-7"
       inkscape:connector-curvature="0"
       sodipodi:nodetypes="cscsc" />
    <path
       style="fill:#000000;fill-opacity:0.28934015;stroke:none;stroke-width:0.251876px;stroke-linecap:butt;stroke-linejoin:miter;stroke-opacity:1"
       d="m 5.227502,295.31054 c 0,0 0.7792016,-0.62336 3.2281207,-0.64562 2.4489193,-0.0223 3.0500183,0.73468 3.0500183,0.73468 0,0 -1.402563,-0.6679 -3.0277552,-0.57884 -1.6251919,0.0891 -1.2467225,-0.0223 -3.2503838,0.48978 z"
       id="path7888"
       inkscape:connector-curvature="0" />
    <ellipse
       style="opacity:0.92000002;fill:#ffffff;fill-opacity:0.92796612;stroke:none;stroke-width:0.26429936;stroke-miterlimit:4;stroke-dasharray:none;filter:url(#filter9271)"
       id="path8561"
       cx="-74.243477"
       cy="278.62848"
       rx="1.2962284"
       ry="1.3814652"
       transform="matrix(0.91250394,-0.27127076,0.27714443,0.9107372,0.39645198,13.821503)" />
  </g>
</svg>
