<?xml version="1.0" encoding="UTF-8" standalone="no"?>
<!-- Created with Inkscape (http://www.inkscape.org/) -->

<svg
   xmlns:dc="http://purl.org/dc/elements/1.1/"
   xmlns:cc="http://creativecommons.org/ns#"
   xmlns:rdf="http://www.w3.org/1999/02/22-rdf-syntax-ns#"
   xmlns:svg="http://www.w3.org/2000/svg"
   xmlns="http://www.w3.org/2000/svg"
   xmlns:sodipodi="http://sodipodi.sourceforge.net/DTD/sodipodi-0.dtd"
   xmlns:inkscape="http://www.inkscape.org/namespaces/inkscape"
   width="64"
   height="64"
   viewBox="0 0 16.933333 16.933334"
   version="1.1"
   id="svg8"
   inkscape:version="0.92.3 (2405546, 2018-03-11)"
   sodipodi:docname="dechet_verreincolore01.svg">
  <defs
     id="defs2">
    <filter
       inkscape:collect="always"
       style="color-interpolation-filters:sRGB"
       id="filter11997"
       x="-0.05958189"
       width="1.1191638"
       y="-0.049345399"
       height="1.0986908">
      <feGaussianBlur
         inkscape:collect="always"
         stdDeviation="0.053728515"
         id="feGaussianBlur11999" />
    </filter>
  </defs>
  <sodipodi:namedview
     id="base"
     pagecolor="#ffffff"
     bordercolor="#666666"
     borderopacity="1.0"
     inkscape:pageopacity="0.0"
     inkscape:pageshadow="2"
     inkscape:zoom="11.313709"
     inkscape:cx="33.013212"
     inkscape:cy="30.852031"
     inkscape:document-units="mm"
     inkscape:current-layer="layer1"
     showgrid="false"
     units="px"
     showguides="true"
     inkscape:guide-bbox="true"
     inkscape:window-width="1920"
     inkscape:window-height="1017"
     inkscape:window-x="-8"
     inkscape:window-y="100"
     inkscape:window-maximized="1"
     inkscape:snap-global="false">
    <sodipodi:guide
       position="8.4666667,12.113992"
       orientation="1,0"
       id="guide1570"
       inkscape:locked="false"
       inkscape:label=""
       inkscape:color="rgb(0,0,255)" />
  </sodipodi:namedview>
  <metadata
     id="metadata5">
    <rdf:RDF>
      <cc:Work
         rdf:about="">
        <dc:format>image/svg+xml</dc:format>
        <dc:type
           rdf:resource="http://purl.org/dc/dcmitype/StillImage" />
        <dc:title />
      </cc:Work>
    </rdf:RDF>
  </metadata>
  <g
     inkscape:label="Calque 1"
     inkscape:groupmode="layer"
     id="layer1"
     transform="translate(0,-280.06665)">
    <circle
       style="opacity:1;vector-effect:none;fill:#ff0000;fill-opacity:1;fill-rule:evenodd;stroke:none;stroke-width:0.02784885;stroke-linecap:butt;stroke-linejoin:miter;stroke-miterlimit:15.19999981;stroke-dasharray:none;stroke-dashoffset:0;stroke-opacity:1"
       id="path839"
       cx="8.4666662"
       cy="288.53333"
       r="8.4666662" />
    <path
       style="opacity:1;fill:#ffffff;fill-opacity:0.96186441;stroke:#000000;stroke-width:0.25433183;stroke-linecap:butt;stroke-linejoin:miter;stroke-miterlimit:4;stroke-dasharray:none;stroke-opacity:1"
       d="m 6.8967746,280.91893 0.033779,0.97808 c 0.4785147,0.37065 0.4174224,1.4215 0.3710664,1.92193 -0.1201122,1.29665 -1.2273884,2.12501 -2.248342,3.19208 -1.1849522,1.23847 -0.4734224,8.25541 -0.3819066,8.38495 0.9914091,0.87703 2.0716189,1.00401 3.4930019,1.01695 1.4151885,0.0128 3.0306557,-0.20281 3.7988867,-1.01149 0.02201,-0.19923 1.405286,-7.12579 -0.269506,-8.33999 -1.014496,-0.7355 -2.2203657,-1.96064 -2.3602442,-3.23703 -0.042922,-0.39165 -0.1246061,-1.47341 0.3705696,-1.92243 l 0.033779,-0.9776 c -0.6947064,-0.4014 -2.2648039,-0.39231 -2.8410828,-0.006 z"
       id="path1548"
       inkscape:connector-curvature="0"
       sodipodi:nodetypes="ccsscscsscccc" />
    <path
       style="fill:#000000;stroke:none;stroke-width:0.25433183px;stroke-linecap:butt;stroke-linejoin:miter;stroke-opacity:1"
       d="m 8.2906121,294.07599 c 1.8659129,0.003 3.3270349,0.74184 3.3270349,0.74184 0,0 -1.526152,-0.56461 -3.327035,-0.53954 -2.2257028,0.0309 -3.3270355,0.47209 -3.3270355,0.47209 0,0 1.0785047,-0.67777 3.3270356,-0.67439 z"
       id="path1572"
       inkscape:connector-curvature="0"
       sodipodi:nodetypes="scscs" />
    <path
       style="fill:#000000;stroke:none;stroke-width:0.25433183px;stroke-linecap:butt;stroke-linejoin:miter;stroke-opacity:1"
       d="m 7.0991733,281.15 c 0,0 0.5844792,0.24727 1.1015184,0.24727 0.5170393,0 1.3712782,-0.26975 1.3712782,-0.26975 0,0 -0.6069592,0.31473 -1.3263182,0.3372 C 7.5262927,281.48725 7.0991733,281.15 7.0991733,281.15 Z"
       id="path2820"
       inkscape:connector-curvature="0"
       sodipodi:nodetypes="csccc" />
    <ellipse
       style="opacity:0.88999999;fill:#ffffff;fill-opacity:1;stroke:none;stroke-width:0.28580233;stroke-miterlimit:4;stroke-dasharray:none;filter:url(#filter11997)"
       id="path3500"
       cx="-23.361803"
       cy="289.16138"
       rx="1.0742224"
       ry="1.3116754"
       transform="matrix(0.95821941,-0.07632256,0.11061186,0.95486888,0.15286291,11.146231)" />
  </g>
</svg>
