<?xml version="1.0" encoding="UTF-8" standalone="no"?>
<!-- Created with Inkscape (http://www.inkscape.org/) -->

<svg
   xmlns:dc="http://purl.org/dc/elements/1.1/"
   xmlns:cc="http://creativecommons.org/ns#"
   xmlns:rdf="http://www.w3.org/1999/02/22-rdf-syntax-ns#"
   xmlns:svg="http://www.w3.org/2000/svg"
   xmlns="http://www.w3.org/2000/svg"
   xmlns:sodipodi="http://sodipodi.sourceforge.net/DTD/sodipodi-0.dtd"
   xmlns:inkscape="http://www.inkscape.org/namespaces/inkscape"
   width="64"
   height="64"
   viewBox="0 0 16.933333 16.933334"
   version="1.1"
   id="svg8"
   inkscape:version="0.92.3 (2405546, 2018-03-11)"
   sodipodi:docname="dechet_verreincolore01.svg">
  <defs
     id="defs2">
    <filter
       inkscape:collect="always"
       style="color-interpolation-filters:sRGB"
       id="filter11997"
       x="-0.05958189"
       width="1.1191638"
       y="-0.049345399"
       height="1.0986908">
      <feGaussianBlur
         inkscape:collect="always"
         stdDeviation="0.053728515"
         id="feGaussianBlur11999" />
    </filter>
  </defs>
  <sodipodi:namedview
     id="base"
     pagecolor="#ffffff"
     bordercolor="#666666"
     borderopacity="1.0"
     inkscape:pageopacity="0.0"
     inkscape:pageshadow="2"
     inkscape:zoom="11.313709"
     inkscape:cx="-15.379406"
     inkscape:cy="32.354633"
     inkscape:document-units="mm"
     inkscape:current-layer="layer1"
     showgrid="false"
     units="px"
     showguides="true"
     inkscape:guide-bbox="true"
     inkscape:window-width="1920"
     inkscape:window-height="1017"
     inkscape:window-x="-8"
     inkscape:window-y="100"
     inkscape:window-maximized="1"
     inkscape:snap-global="false">
    <sodipodi:guide
       position="8.4666667,12.113992"
       orientation="1,0"
       id="guide1570"
       inkscape:locked="false"
       inkscape:label=""
       inkscape:color="rgb(0,0,255)" />
  </sodipodi:namedview>
  <metadata
     id="metadata5">
    <rdf:RDF>
      <cc:Work
         rdf:about="">
        <dc:format>image/svg+xml</dc:format>
        <dc:type
           rdf:resource="http://purl.org/dc/dcmitype/StillImage" />
        <dc:title />
      </cc:Work>
    </rdf:RDF>
  </metadata>
  <g
     inkscape:label="Calque 1"
     inkscape:groupmode="layer"
     id="layer1"
     transform="translate(0,-280.06665)">
    <path
       style="fill:#ffffff;fill-opacity:0.94491524;stroke:#000000;stroke-width:0.26458332;stroke-linecap:butt;stroke-linejoin:miter;stroke-miterlimit:4;stroke-dasharray:none;stroke-opacity:1;opacity:1"
       d="m 7.0157424,280.64658 0.03514,1.01751 c 0.4978025,0.38559 0.4342477,1.4788 0.3860231,1.9994 -0.1249536,1.34892 -1.2768614,2.21066 -2.3389671,3.32074 -1.2327147,1.28839 -0.492505,8.58817 -0.3973004,8.72293 1.0313705,0.91238 2.1551209,1.04449 3.6337964,1.05794 1.4722313,0.0134 3.1528146,-0.21098 3.9520106,-1.05226 0.0229,-0.20726 1.461931,-7.41301 -0.280369,-8.67616 -1.055388,-0.76514 -2.3098634,-2.03966 -2.4553801,-3.3675 -0.044651,-0.40744 -0.1296286,-1.53279 0.3855064,-1.99993 l 0.03514,-1.01699 c -0.7227083,-0.41758 -2.3560926,-0.40813 -2.9556,-0.006 z"
       id="path1548"
       inkscape:connector-curvature="0"
       sodipodi:nodetypes="ccsscscsscccc" />
    <path
       style="fill:#000000;stroke:none;stroke-width:0.26458332px;stroke-linecap:butt;stroke-linejoin:miter;stroke-opacity:1"
       d="m 8.4657622,294.33397 c 1.9411228,0.003 3.4611398,0.77174 3.4611398,0.77174 0,0 -1.587668,-0.58736 -3.4611399,-0.56127 -2.3154156,0.0322 -3.4611402,0.49111 -3.4611402,0.49111 0,0 1.1219765,-0.70509 3.4611403,-0.70158 z"
       id="path1572"
       inkscape:connector-curvature="0"
       sodipodi:nodetypes="scscs" />
    <path
       style="fill:#000000;stroke:none;stroke-width:0.26458332px;stroke-linecap:butt;stroke-linejoin:miter;stroke-opacity:1"
       d="m 7.2262994,280.88697 c 0,0 0.6080382,0.25724 1.1459179,0.25724 0.5378799,0 1.4265512,-0.28063 1.4265512,-0.28063 0,0 -0.6314244,0.32741 -1.379779,0.35079 -0.7483546,0.0234 -1.1926901,-0.3274 -1.1926901,-0.3274 z"
       id="path2820"
       inkscape:connector-curvature="0"
       sodipodi:nodetypes="csccc" />
    <ellipse
       style="opacity:0.89;fill:#ffffff;fill-opacity:1;stroke:none;stroke-width:0.28580233;stroke-miterlimit:4;stroke-dasharray:none;filter:url(#filter11997)"
       id="path3500"
       cx="-23.361803"
       cy="289.16138"
       rx="1.0742224"
       ry="1.3116754"
       transform="matrix(0.99684292,-0.07939895,0.11507036,0.99335734,0,0)" />
  </g>
</svg>
