<?xml version="1.0" encoding="UTF-8" standalone="no"?>
<!-- Created with Inkscape (http://www.inkscape.org/) -->

<svg
   xmlns:dc="http://purl.org/dc/elements/1.1/"
   xmlns:cc="http://creativecommons.org/ns#"
   xmlns:rdf="http://www.w3.org/1999/02/22-rdf-syntax-ns#"
   xmlns:svg="http://www.w3.org/2000/svg"
   xmlns="http://www.w3.org/2000/svg"
   xmlns:sodipodi="http://sodipodi.sourceforge.net/DTD/sodipodi-0.dtd"
   xmlns:inkscape="http://www.inkscape.org/namespaces/inkscape"
   width="64"
   height="64"
   viewBox="0 0 16.933333 16.933334"
   version="1.1"
   id="svg8"
   sodipodi:docname="dechet_carton02.svg"
   inkscape:version="0.92.3 (2405546, 2018-03-11)">
  <defs
     id="defs2" />
  <sodipodi:namedview
     id="base"
     pagecolor="#ffffff"
     bordercolor="#666666"
     borderopacity="1.0"
     inkscape:pageopacity="0.0"
     inkscape:pageshadow="2"
     inkscape:zoom="8.3217629"
     inkscape:cx="10.25697"
     inkscape:cy="29.937336"
     inkscape:document-units="mm"
     inkscape:current-layer="layer1"
     showgrid="false"
     units="px"
     inkscape:snap-global="false"
     inkscape:window-width="1920"
     inkscape:window-height="1017"
     inkscape:window-x="-8"
     inkscape:window-y="100"
     inkscape:window-maximized="1"
     showguides="false" />
  <metadata
     id="metadata5">
    <rdf:RDF>
      <cc:Work
         rdf:about="">
        <dc:format>image/svg+xml</dc:format>
        <dc:type
           rdf:resource="http://purl.org/dc/dcmitype/StillImage" />
        <dc:title />
      </cc:Work>
    </rdf:RDF>
  </metadata>
  <g
     inkscape:label="Calque 1"
     inkscape:groupmode="layer"
     id="layer1"
     transform="translate(0,-280.06665)">
    <circle
       style="opacity:1;vector-effect:none;fill:#ff0000;fill-opacity:1;fill-rule:evenodd;stroke:none;stroke-width:0.02784885;stroke-linecap:butt;stroke-linejoin:miter;stroke-miterlimit:15.19999981;stroke-dasharray:none;stroke-dashoffset:0;stroke-opacity:1"
       id="path839"
       cx="8.4666662"
       cy="288.53333"
       r="8.4666662" />
    <path
       style="fill:#6a5500;stroke:#000000;stroke-width:0.26458332px;stroke-linecap:butt;stroke-linejoin:miter;stroke-opacity:1;fill-opacity:1"
       d="m 1.3489113,282.90386 -0.87679235,1.9784 8.52062285,-2.27066 z"
       id="path1399"
       inkscape:connector-curvature="0" />
    <path
       style="fill:#a88700;fill-opacity:1;stroke:#000000;stroke-width:0.26458332px;stroke-linecap:butt;stroke-linejoin:miter;stroke-opacity:1"
       d="m 1.4307365,282.85159 5.309622,0.92203 7.8849465,-2.28918 -4.9598846,-0.44511 z"
       id="path1393"
       inkscape:connector-curvature="0"
       sodipodi:nodetypes="ccccc" />
    <path
       style="fill:#ffd730;fill-opacity:1;stroke:#000000;stroke-width:0.26458332px;stroke-linecap:butt;stroke-linejoin:miter;stroke-opacity:1"
       d="m 1.4943247,294.55183 -0.063588,-11.66844 5.0754912,0.85844 0.2659247,13.0038 z"
       id="path1389"
       inkscape:connector-curvature="0"
       sodipodi:nodetypes="ccccc" />
    <path
       style="fill:#dcb100;stroke:#000000;stroke-width:0.26458332px;stroke-linecap:butt;stroke-linejoin:miter;stroke-opacity:1;fill-opacity:1"
       d="m 9.6654194,281.07112 0.286148,6.486 c 0,0 4.7055326,-6.13627 4.3875916,-6.10447 -0.317942,0.0318 -4.6737396,-0.38153 -4.6737396,-0.38153 z"
       id="path1395"
       inkscape:connector-curvature="0" />
    <path
       style="fill:#ffe680;fill-opacity:1;stroke:#000000;stroke-width:0.26458332px;stroke-linecap:butt;stroke-linejoin:miter;stroke-opacity:1"
       d="m 7.0265056,296.72975 7.5670054,-4.27632 -0.03179,-10.93719 -7.8849468,2.1938 z"
       id="path1391"
       inkscape:connector-curvature="0"
       sodipodi:nodetypes="ccccc" />
    <path
       style="fill:#ffeeaa;stroke:#000000;stroke-width:0.26458332px;stroke-linecap:butt;stroke-linejoin:miter;stroke-opacity:1"
       d="m 6.6131821,283.80541 1.8758545,2.41636 8.1717564,-3.32136 -2.040943,-1.44777 z"
       id="path1397"
       inkscape:connector-curvature="0"
       sodipodi:nodetypes="ccccc" />
    <path
       style="fill:#ffccaa;stroke:#000000;stroke-width:0.26458332px;stroke-linecap:butt;stroke-linejoin:miter;stroke-opacity:1"
       d="m 11.06493,292.39093 c 3.207124,-1.16747 2.562931,-4.09169 2.562931,-4.09169 l -5.5080541,1.73109 c 0,0 -0.3583306,3.56313 2.9451231,2.3606 z"
       id="path1405"
       inkscape:connector-curvature="0"
       sodipodi:nodetypes="sccs" />
    <ellipse
       style="opacity:1;fill:#ffffff;fill-opacity:1;stroke:#000000;stroke-width:0.34432119;stroke-miterlimit:4;stroke-dasharray:none;stroke-dashoffset:0"
       id="path1407"
       cx="-71.292809"
       cy="279.55371"
       rx="2.8246844"
       ry="0.61001521"
       transform="matrix(0.9559045,-0.2936777,0.28271557,0.95920379,0,0)" />
    <path
       style="fill:#999999;stroke:#000000;stroke-width:0.13229167;stroke-linecap:butt;stroke-linejoin:miter;stroke-miterlimit:4;stroke-dasharray:none;stroke-opacity:1"
       d="m 11.77231,288.80427 c 0.03635,-0.11647 0.395107,-1.00185 0.416713,-1.44928 0.02408,-0.49869 0.144452,-1.09335 0.458949,-1.36344 0.363832,-0.31246 0.507066,0.76945 0.07652,1.43474 -0.273022,0.42189 -0.406822,1.13297 -0.481197,1.32643 -0.101303,0.26351 -0.543891,0.28516 -0.470989,0.0515 z"
       id="path1409"
       inkscape:connector-curvature="0"
       sodipodi:nodetypes="csssssc" />
    <path
       style="opacity:0.41300001;fill:#000000;stroke:none;stroke-width:0.26458332px;stroke-linecap:butt;stroke-linejoin:miter;stroke-opacity:1"
       d="m 11.62076,289.0276 c 0.531578,0.30279 0.659729,-0.20665 0.659729,-0.20665 0,0 -0.11128,0.5564 -0.691523,0.2385 -0.262302,-0.27819 0.151027,-0.34973 0.151027,-0.34973 -0.180422,0.1235 -0.304106,0.21257 -0.119233,0.31788 z"
       id="path1411"
       inkscape:connector-curvature="0"
       sodipodi:nodetypes="scccs" />
    <path
       style="opacity:0.43000004;fill:#000000;stroke:none;stroke-width:0.26458332px;stroke-linecap:butt;stroke-linejoin:miter;stroke-opacity:1"
       d="m 11.42986,289.07388 c 0.640134,0.43249 0.97767,-0.0954 0.97767,-0.0954 0,0 -0.309993,0.60409 -1.009464,0.12722 -0.302045,-0.34178 0.341792,-0.48486 0.341792,-0.48486 -0.402981,0.14735 -0.466352,0.34737 -0.309998,0.45301 z"
       id="path1411-3"
       inkscape:connector-curvature="0"
       sodipodi:nodetypes="scccs" />
    <path
       style="fill:#d38d5f;stroke:none;stroke-width:0.26458332px;stroke-linecap:butt;stroke-linejoin:miter;stroke-opacity:1"
       d="m 9.8402875,289.63964 c 0.076219,0.0611 0.2115515,-4.9e-4 0.2861475,-0.0636 0.08076,-0.0683 -0.03974,-0.23051 0.119228,-0.29409 0.158971,-0.0636 0.160838,0.14641 0.262302,0.15897 0.07153,0.009 0.228819,0.005 0.206662,-0.0636 -0.07661,-0.23714 -0.230508,-0.42922 -0.548449,-0.28615 -0.3179419,0.14308 -0.2695636,0.34339 -0.3258905,0.54845 -1.8e-6,1e-5 -5.2e-6,2e-5 0,2e-5 z"
       id="path1428"
       inkscape:connector-curvature="0"
       sodipodi:nodetypes="cccssccc" />
    <path
       style="fill:#d38d5f;stroke:none;stroke-width:0.22056177px;stroke-linecap:butt;stroke-linejoin:miter;stroke-opacity:1"
       d="m 9.1021194,289.62923 c 0.06649,0.047 0.176009,-0.011 0.234918,-0.0673 0.06378,-0.0608 -0.04462,-0.18982 0.08447,-0.25069 0.129094,-0.0609 0.141174,0.11377 0.226232,0.11914 0.05997,0.004 0.190654,-0.008 0.168778,-0.0633 -0.07564,-0.19349 -0.213321,-0.34561 -0.470713,-0.21062 -0.2573909,0.135 -0.207095,0.29925 -0.243687,0.47271 -10e-7,0 -4e-6,1e-5 1e-6,1e-5 z"
       id="path1428-6"
       inkscape:connector-curvature="0"
       sodipodi:nodetypes="cccssccc" />
    <path
       style="fill:#d38d5f;stroke:none;stroke-width:0.18847452px;stroke-linecap:butt;stroke-linejoin:miter;stroke-opacity:1"
       d="m 10.642356,289.07693 c 0.05691,0.0401 0.150638,-0.009 0.201056,-0.0574 0.05459,-0.0519 -0.03819,-0.16195 0.07229,-0.21388 0.110485,-0.052 0.120824,0.0971 0.193621,0.10164 0.05132,0.003 0.163172,-0.007 0.144449,-0.054 -0.06474,-0.16509 -0.182571,-0.29487 -0.402861,-0.1797 -0.220289,0.11518 -0.177243,0.25532 -0.20856,0.40331 -10e-7,0 -4e-6,10e-6 1e-6,10e-6 z"
       id="path1428-6-7"
       inkscape:connector-curvature="0"
       sodipodi:nodetypes="cccssccc" />
  </g>
</svg>
