<?xml version="1.0" encoding="UTF-8" standalone="no"?>
<!-- Created with Inkscape (http://www.inkscape.org/) -->

<svg
   xmlns:dc="http://purl.org/dc/elements/1.1/"
   xmlns:cc="http://creativecommons.org/ns#"
   xmlns:rdf="http://www.w3.org/1999/02/22-rdf-syntax-ns#"
   xmlns:svg="http://www.w3.org/2000/svg"
   xmlns="http://www.w3.org/2000/svg"
   xmlns:sodipodi="http://sodipodi.sourceforge.net/DTD/sodipodi-0.dtd"
   xmlns:inkscape="http://www.inkscape.org/namespaces/inkscape"
   width="64"
   height="64"
   viewBox="0 0 16.933333 16.933334"
   version="1.1"
   id="svg8"
   inkscape:version="0.92.3 (2405546, 2018-03-11)"
   sodipodi:docname="dechet_pmc02.svg">
  <defs
     id="defs2" />
  <sodipodi:namedview
     id="base"
     pagecolor="#ffffff"
     bordercolor="#666666"
     borderopacity="1.0"
     inkscape:pageopacity="0.0"
     inkscape:pageshadow="2"
     inkscape:zoom="11.313709"
     inkscape:cx="24.262766"
     inkscape:cy="35.271448"
     inkscape:document-units="mm"
     inkscape:current-layer="layer1"
     showgrid="false"
     units="px"
     showguides="true"
     inkscape:guide-bbox="true"
     inkscape:window-width="1920"
     inkscape:window-height="1017"
     inkscape:window-x="-8"
     inkscape:window-y="100"
     inkscape:window-maximized="1"
     inkscape:snap-global="false" />
  <metadata
     id="metadata5">
    <rdf:RDF>
      <cc:Work
         rdf:about="">
        <dc:format>image/svg+xml</dc:format>
        <dc:type
           rdf:resource="http://purl.org/dc/dcmitype/StillImage" />
        <dc:title />
      </cc:Work>
    </rdf:RDF>
  </metadata>
  <g
     inkscape:label="Calque 1"
     inkscape:groupmode="layer"
     id="layer1"
     transform="translate(0,-280.06665)">
    <circle
       style="opacity:1;vector-effect:none;fill:#ff0000;fill-opacity:1;fill-rule:evenodd;stroke:none;stroke-width:0.02780313;stroke-linecap:butt;stroke-linejoin:miter;stroke-miterlimit:15.19999981;stroke-dasharray:none;stroke-dashoffset:0;stroke-opacity:1"
       id="path839"
       cx="8.4527655"
       cy="288.54721"
       r="8.4527655" />
    <path
       style="fill:#999999;stroke:#000000;stroke-width:0.26458332px;stroke-linecap:butt;stroke-linejoin:miter;stroke-opacity:1"
       d="m 4.3965836,293.16466 c 0.2172405,1.10523 0.1873457,3.14254 4.0224059,3.13374 3.9836825,-0.009 3.4747285,-1.92936 3.9756345,-2.94666 -2.34373,-3.33037 -5.8761665,-3.08699 -7.9980404,-0.18708 z"
       id="path2192"
       inkscape:connector-curvature="0"
       sodipodi:nodetypes="cscc" />
    <path
       style="fill:#4d4d4d;stroke:none;stroke-width:0.26458332px;stroke-linecap:butt;stroke-linejoin:miter;stroke-opacity:1"
       d="m 4.6538303,294.26381 c 0,0 1.4967092,1.28624 3.6950012,1.19269 2.1982915,-0.0935 3.6950005,-0.86528 3.6950005,-0.86528 0,0 -1.262848,1.30962 -3.8587031,1.21607 -3.2038932,-0.18704 -3.5312986,-1.54348 -3.5312986,-1.54348 z"
       id="path5498"
       inkscape:connector-curvature="0"
       sodipodi:nodetypes="ccccc" />
    <path
       style="fill:#800000;fill-opacity:0.99492385;stroke:#000000;stroke-width:0.26458332;stroke-linecap:butt;stroke-linejoin:miter;stroke-miterlimit:4;stroke-dasharray:none;stroke-opacity:1"
       d="m 4.7471472,282.40054 c -6.493e-4,0.37646 -0.4755079,1.40877 -0.4755079,1.40877 0,0 -0.1027481,6.4466 -0.09912,9.19164 0.2136036,2.03203 2.800101,2.41568 4.115143,2.43114 1.6740446,-0.0966 4.2948507,-0.25907 4.4337177,-2.1736 0.09656,-2.60954 0.04898,-9.14436 0.04898,-9.14436 l -0.530441,-1.70791 c 0.537864,-1.60078 -8.590666,-1.55169 -7.4927889,-0.006 z"
       id="path1548"
       inkscape:connector-curvature="0"
       sodipodi:nodetypes="ccccccccc" />
    <path
       style="fill:#808080;stroke:#000000;stroke-width:0.26458332px;stroke-linecap:butt;stroke-linejoin:miter;stroke-opacity:1"
       d="m 4.6070581,282.03288 c 0.2713996,-0.64024 2.5724693,-0.81851 3.8820898,-0.84189 1.3096206,-0.0234 3.5296591,0.23474 3.8353171,0.79512 0.280633,0.5145 -2.152202,0.83303 -3.9054753,0.79513 -2.5969336,-0.0561 -3.9736608,-0.36683 -3.8119316,-0.74836 z"
       id="path2196"
       inkscape:connector-curvature="0"
       sodipodi:nodetypes="scsss" />
    <path
       style="fill:#ffffff;fill-opacity:0.34322037;stroke:none;stroke-width:0.26458332px;stroke-linecap:butt;stroke-linejoin:miter;stroke-opacity:1"
       d="m 5.3320267,282.94495 c -0.1637025,0.25724 -0.2104747,0.60803 -0.1403163,0.86528 -0.2498665,0.066 -0.4677217,0.0468 -0.6781964,0.0935 0.5846523,0.25725 1.1934727,0.38678 1.5902534,0.42096 0.6568046,0.0566 1.1876121,0.15445 2.0813615,0.0468 -1.2011213,-0.10824 -1.4967095,-0.39756 -1.4967095,-0.39756 0,0 0.8652851,0.0936 0.9354434,-0.14032 0.070158,-0.23386 0.1169305,-0.30402 3e-7,-0.6782 -0.3274052,0 -1.7773422,-0.0702 -2.2918361,-0.21047 z"
       id="path5492"
       inkscape:connector-curvature="0"
       sodipodi:nodetypes="cccscccccc" />
    <path
       style="fill:#ffffff;fill-opacity:0.33050848;stroke:none;stroke-width:0.26458332px;stroke-linecap:butt;stroke-linejoin:miter;stroke-opacity:1"
       d="m 9.7286103,283.27235 c 0.6314247,0.0234 1.6136397,-0.18708 1.8241137,-0.28063 0,0.28068 0.140317,0.6782 0.09354,0.77174 0.07016,0.21043 0.280634,0.30402 0.467723,0.23386 0.187088,-0.0702 -0.269668,0.19925 -1.473324,0.37418 -0.431138,0.0627 -0.8605422,0.0581 -1.4265507,-0.0468 0.430202,0.005 0.7249687,-0.11697 0.9822157,-0.30402 0.257247,-0.18709 -0.4209498,-0.14032 -0.4209498,-0.14032 0,0 -0.019081,-0.45972 -0.046768,-0.60802 z"
       id="path5494"
       inkscape:connector-curvature="0"
       sodipodi:nodetypes="ccccscccc" />
    <path
       style="fill:#cccccc;stroke:none;stroke-width:0.26458332px;stroke-linecap:butt;stroke-linejoin:miter;stroke-opacity:1"
       d="m 4.7006026,282.10304 c 0.3741773,-0.37417 0.7951267,-0.74835 3.6014565,-0.81851 2.8063299,-0.0702 3.5780709,0.44434 3.9288619,0.72497 -1.216077,-0.35078 -1.789687,-0.46059 -3.9054756,-0.44433 -1.2738988,0.01 -2.9249364,0.17457 -3.6248428,0.53787 z"
       id="path5496"
       inkscape:connector-curvature="0"
       sodipodi:nodetypes="cccsc" />
  </g>
</svg>
