<?xml version="1.0" encoding="UTF-8" standalone="no"?>
<!-- Created with Inkscape (http://www.inkscape.org/) -->

<svg
   xmlns:dc="http://purl.org/dc/elements/1.1/"
   xmlns:cc="http://creativecommons.org/ns#"
   xmlns:rdf="http://www.w3.org/1999/02/22-rdf-syntax-ns#"
   xmlns:svg="http://www.w3.org/2000/svg"
   xmlns="http://www.w3.org/2000/svg"
   xmlns:sodipodi="http://sodipodi.sourceforge.net/DTD/sodipodi-0.dtd"
   xmlns:inkscape="http://www.inkscape.org/namespaces/inkscape"
   width="64"
   height="64"
   viewBox="0 0 16.933333 16.933334"
   version="1.1"
   id="svg8"
   inkscape:version="0.92.3 (2405546, 2018-03-11)"
   sodipodi:docname="dechet_pmc01.svg">
  <defs
     id="defs2" />
  <sodipodi:namedview
     id="base"
     pagecolor="#ffffff"
     bordercolor="#666666"
     borderopacity="1.0"
     inkscape:pageopacity="0.0"
     inkscape:pageshadow="2"
     inkscape:zoom="11.313709"
     inkscape:cx="8.5738353"
     inkscape:cy="33.59207"
     inkscape:document-units="mm"
     inkscape:current-layer="layer1"
     showgrid="false"
     units="px"
     showguides="true"
     inkscape:guide-bbox="true"
     inkscape:window-width="1920"
     inkscape:window-height="1017"
     inkscape:window-x="-8"
     inkscape:window-y="100"
     inkscape:window-maximized="1"
     inkscape:snap-global="false">
    <sodipodi:guide
       position="8.4666667,12.113992"
       orientation="1,0"
       id="guide1570"
       inkscape:locked="false"
       inkscape:label=""
       inkscape:color="rgb(0,0,255)" />
  </sodipodi:namedview>
  <metadata
     id="metadata5">
    <rdf:RDF>
      <cc:Work
         rdf:about="">
        <dc:format>image/svg+xml</dc:format>
        <dc:type
           rdf:resource="http://purl.org/dc/dcmitype/StillImage" />
        <dc:title />
      </cc:Work>
    </rdf:RDF>
  </metadata>
  <g
     inkscape:label="Calque 1"
     inkscape:groupmode="layer"
     id="layer1"
     transform="translate(0,-280.06665)">
    <path
       style="fill:#d2ffff;fill-opacity:1;stroke:#000000;stroke-width:0.26458332;stroke-linecap:butt;stroke-linejoin:miter;stroke-miterlimit:4;stroke-dasharray:none;stroke-opacity:1"
       d="m 7.0157424,280.64658 0.03514,1.01751 c 0,0 0.3051834,0.64037 0.3100586,0.78914 0.0043,0.13131 -0.2311887,0.17194 -0.2542479,0.30128 -0.056592,0.31742 0.49655,-0.0693 0.3302124,0.90898 -0.093892,0.55224 -2.7757676,1.43432 -2.6897583,2.15143 0.1367657,1.14029 1.2084704,1.37697 1.2040291,1.82853 -0.00444,0.45157 -1.225131,0.25288 -1.2298673,0.71067 -0.00474,0.45779 1.9316196,0.70652 1.9271838,1.1639 -0.00444,0.45738 -1.9728698,0.28161 -1.9764083,0.73195 -0.00354,0.45033 1.2564538,0.75513 1.2544086,1.19179 -0.00204,0.43665 -1.2662063,0.28021 -1.2661623,0.69655 4.42e-5,0.41634 0.3052619,1.61573 0.3079914,2.00512 0.00273,0.38939 -0.9026261,0.94628 -0.2676837,1.56373 0.9871955,0.96 2.1551209,1.04449 3.6337964,1.05794 1.4722313,0.0134 3.1468961,-0.21664 3.9520111,-1.05226 0.499999,-0.51894 -0.270383,-1.17434 -0.267683,-1.56373 0.0027,-0.38939 0.308464,-1.58929 0.308508,-2.00563 4.4e-5,-0.41634 -1.217391,-0.35344 -1.219391,-0.79009 -0.002,-0.43666 1.164365,-0.64792 1.160865,-1.09825 -0.0035,-0.45034 -1.785436,-0.27407 -1.789836,-0.73145 -0.0044,-0.45737 1.791567,-0.7061 1.786867,-1.16389 -0.0047,-0.45779 -1.038379,-0.4701 -1.042779,-0.92167 -0.0044,-0.45156 0.867697,-0.56531 1.016941,-1.61753 0.101425,-0.71508 -2.5884065,-1.67948 -2.6892416,-2.15142 -0.2073431,-0.97042 0.3868026,-0.59209 0.3302125,-0.90951 -0.023059,-0.12934 -0.258548,-0.16944 -0.254248,-0.30075 0.00488,-0.14877 0.3095419,-0.78967 0.3095419,-0.78967 l 0.03514,-1.01699 c -0.7227083,-0.41758 -2.3560926,-0.40813 -2.9556,-0.006 z"
       id="path1548"
       inkscape:connector-curvature="0"
       sodipodi:nodetypes="ccccsscccccscssscscccccsssccccc" />
    <path
       style="fill:#000000;stroke:none;stroke-width:0.26458332px;stroke-linecap:butt;stroke-linejoin:miter;stroke-opacity:1"
       d="m 8.4657622,294.33397 c 1.9411228,0.003 3.4611398,0.77174 3.4611398,0.77174 0,0 -1.587668,-0.58736 -3.4611399,-0.56127 -2.3154156,0.0322 -3.4611402,0.49111 -3.4611402,0.49111 0,0 1.1219765,-0.70509 3.4611403,-0.70158 z"
       id="path1572"
       inkscape:connector-curvature="0"
       sodipodi:nodetypes="scscs" />
    <path
       style="fill:#00ffff;stroke:#000000;stroke-width:0.26458332px;stroke-linecap:butt;stroke-linejoin:miter;stroke-opacity:1"
       d="m 8.4423757,280.34909 c 1.2385997,-0.006 1.520096,0.28063 1.520096,0.28063 l -4e-6,1.02899 c 0,0 -0.6548104,0.18706 -1.5200955,0.16366 -0.8652846,-0.0234 -1.4265505,-0.23387 -1.4265505,-0.23387 l 0.046772,-1.0056 c 0,0 0.5144743,-0.22993 1.379782,-0.23381 z"
       id="path2816"
       inkscape:connector-curvature="0"
       sodipodi:nodetypes="sccsccs" />
    <path
       style="fill:#00ffff;stroke:#000000;stroke-width:0.26458332px;stroke-linecap:butt;stroke-linejoin:miter;stroke-opacity:1"
       d="m 8.4657618,282.26675 c 0.8860279,-0.003 1.4499371,-0.25724 1.4499371,-0.25724 l 0.023386,0.4911 c 0,0 -0.7946926,0.15475 -1.4733229,0.16373 -0.8652093,0.0115 -1.4499373,-0.25725 -1.4499373,-0.25725 l 0.046772,-0.39757 c 0,0 0.8143858,0.25926 1.4031651,0.25723 z"
       id="path2818"
       inkscape:connector-curvature="0"
       sodipodi:nodetypes="sccsccs" />
    <path
       style="fill:#000000;stroke:none;stroke-width:0.26458332px;stroke-linecap:butt;stroke-linejoin:miter;stroke-opacity:1"
       d="m 7.2730716,280.72327 c 0,0 0.6080382,0.25724 1.1459179,0.25724 0.5378799,0 1.4265512,-0.28063 1.4265512,-0.28063 0,0 -0.6314244,0.32741 -1.379779,0.35079 -0.7483546,0.0234 -1.1926901,-0.3274 -1.1926901,-0.3274 z"
       id="path2820"
       inkscape:connector-curvature="0"
       sodipodi:nodetypes="csccc" />
  </g>
</svg>
