<?xml version="1.0" encoding="UTF-8" standalone="no"?>
<!-- Created with Inkscape (http://www.inkscape.org/) -->

<svg
   xmlns:dc="http://purl.org/dc/elements/1.1/"
   xmlns:cc="http://creativecommons.org/ns#"
   xmlns:rdf="http://www.w3.org/1999/02/22-rdf-syntax-ns#"
   xmlns:svg="http://www.w3.org/2000/svg"
   xmlns="http://www.w3.org/2000/svg"
   xmlns:sodipodi="http://sodipodi.sourceforge.net/DTD/sodipodi-0.dtd"
   xmlns:inkscape="http://www.inkscape.org/namespaces/inkscape"
   width="64"
   height="64"
   viewBox="0 0 16.933333 16.933334"
   version="1.1"
   id="svg8"
   inkscape:version="0.92.3 (2405546, 2018-03-11)"
   sodipodi:docname="pmc.svg">
  <defs
     id="defs2" />
  <sodipodi:namedview
     id="base"
     pagecolor="#ffffff"
     bordercolor="#666666"
     borderopacity="1.0"
     inkscape:pageopacity="0.0"
     inkscape:pageshadow="2"
     inkscape:zoom="8.0000004"
     inkscape:cx="44.216563"
     inkscape:cy="37.508883"
     inkscape:document-units="mm"
     inkscape:current-layer="layer1"
     showgrid="false"
     units="px"
     showguides="true"
     inkscape:guide-bbox="true"
     inkscape:window-width="1853"
     inkscape:window-height="1025"
     inkscape:window-x="67"
     inkscape:window-y="27"
     inkscape:window-maximized="1"
     inkscape:snap-global="false" />
  <metadata
     id="metadata5">
    <rdf:RDF>
      <cc:Work
         rdf:about="">
        <dc:format>image/svg+xml</dc:format>
        <dc:type
           rdf:resource="http://purl.org/dc/dcmitype/StillImage" />
        <dc:title />
      </cc:Work>
    </rdf:RDF>
  </metadata>
  <g
     inkscape:label="Calque 1"
     inkscape:groupmode="layer"
     id="layer1"
     transform="translate(0,-280.06665)">
    <rect
       style="fill:#000000;fill-opacity:1;stroke:none;stroke-width:0.23176907;stroke-miterlimit:4;stroke-dasharray:none"
       id="rect2094"
       width="16.933332"
       height="16.933332"
       x="0"
       y="280.06665" />
    <path
       style="fill:none;stroke:none;stroke-width:0.26458332px;stroke-linecap:butt;stroke-linejoin:miter;stroke-opacity:1"
       d="m 2.1608872,293.05821 c 1.6623787,1.20379 3.7260212,1.57639 6.7641615,1.4904 3.0381403,-0.086 5.5030463,-1.00315 5.9902953,-1.4904"
       id="path2100"
       inkscape:connector-curvature="0"
       sodipodi:nodetypes="ccc" />
    <path
       style="fill:#52b9e9;fill-opacity:1;stroke:none;stroke-width:0.26458332px;stroke-linecap:butt;stroke-linejoin:miter;stroke-opacity:1"
       d="m 9.7810419,280.45746 c -0.8385712,0.14816 -0.8556978,0.48485 -1.1848153,0.60346 -0.4269335,0.15386 -0.6163102,-0.55458 -1.0761511,-0.14786 -0.4229569,0.3741 0.9510386,2.05387 1.6056052,2.22822 -1.6623786,3.52539 -5.1235177,1.91525 -6.6319544,6.96936 -0.7969003,2.67006 0.6665252,4.90362 -0.2512586,4.94796 -0.4461949,0.0216 -0.5341424,0.81728 -0.5341424,0.81728 0.4016891,0.30935 0.9309616,-0.602 4.0970063,0.39404 1.1579888,0.36431 4.0061893,0.66372 5.6771904,0.16775 3.625404,-1.07606 4.152861,-0.23298 4.195805,-0.6051 0.02622,-0.22721 -0.582621,-0.79994 -0.924204,-0.75957 -1.183769,0.1399 0.708267,-2.57115 0.0698,-4.93143 -1.737655,-6.42375 -5.5028885,-6.29431 -4.494453,-6.91432 1.21891,0.22855 2.398714,-2.02579 1.642694,-2.13011 -0.594674,-0.082 -0.747387,0.403 -1.116498,0.26441 -0.594568,-0.22324 -0.497794,-1.00601 -1.0746231,-0.90409 z"
       id="path867"
       inkscape:connector-curvature="0"
       sodipodi:nodetypes="csscsssssssscsssc" />
    <path
       style="fill:#000000;stroke:none;stroke-width:0.26458332px;stroke-linecap:butt;stroke-linejoin:miter;stroke-opacity:1;fill-opacity:0.20812182"
       d="m 10.26914,283.60545 c 0.157096,0.1819 0.636654,0.63666 0.644922,0.83509 0.0083,0.19844 0.190169,0.74414 -0.01654,1.15756 -0.206705,0.41341 -0.487825,1.56269 -0.380338,1.95957 0.107487,0.39687 0.07441,1.13274 0.181901,1.26503 0.107487,0.1323 0.347265,0.20671 0.338997,-0.0579 -0.0083,-0.26459 -0.504362,-1.2237 -0.446484,-1.5875 0.05788,-0.3638 0.51263,-1.35599 0.603581,-1.67845 0.09095,-0.32246 -0.08268,-1.29811 -0.438217,-1.64538 -0.355533,-0.34727 -0.487825,-0.24805 -0.487825,-0.24805 z"
       id="path881"
       inkscape:connector-curvature="0" />
    <path
       style="fill:#000000;fill-opacity:0.25888325;stroke:none;stroke-width:0.27099469px;stroke-linecap:butt;stroke-linejoin:miter;stroke-opacity:1"
       d="m 9.2273431,283.37396 c -0.2976562,0.69391 -0.7276039,1.17964 -0.5622393,1.31842 0.1653646,0.13878 0.4979276,-1.22641 0.6963651,-1.1917 -0.234033,0.99956 0.1132905,0.0258 0.2363182,0.11016 0.029483,0.13694 -0.089324,0.64786 -0.1389335,0.73459 -0.099219,0.17348 0.1722803,0.39946 0.3053369,-0.5762 0.042383,-0.31078 0.095493,-0.009 0.1616031,0.12314 0.025285,0.0505 0.051637,-0.35511 0.1049004,-0.25332 0.106527,0.20358 0.238446,0.84516 0.155764,1.01864 -0.165365,0.34695 0.499596,0.2588 0.322461,-0.13878 -0.180734,-0.40566 -0.284245,-0.50087 -0.338997,-1.04086 -0.03177,-0.31338 0.404756,0.23836 -0.9425788,-0.10407 z"
       id="path879"
       inkscape:connector-curvature="0"
       sodipodi:nodetypes="cscccssscsscc" />
    <path
       style="fill:#ffffff;fill-opacity:0.34010153;stroke:none;stroke-width:0.26458332px;stroke-linecap:butt;stroke-linejoin:miter;stroke-opacity:1"
       d="m 6.5374426,288.18538 c 0.5228035,0.50842 1.5117099,-0.44456 1.5605045,0.0992 0.1118832,1.24685 0.9814092,-0.23031 1.0821229,1.74831 0.028257,0.55514 0.3507915,1.98782 -0.3975634,2.19829 -0.7483547,0.21047 -0.2104748,-1.23946 -0.8652852,-0.81851 -0.6548104,0.42095 -1.4265534,0.91205 -1.8007282,0.46772 -0.3741798,-0.44434 -0.2572469,-0.79513 -1.0056016,-0.56127 -0.7483546,0.23386 -1.2628548,0.42095 -1.449937,-0.0935 -0.187095,-0.51449 -0.4927676,-1.44994 0.091882,-2.31522 0.5846544,-0.86529 1.0632712,-1.48925 1.6510693,-1.73258 1.7230717,-0.71328 0.6418285,0.52936 1.1335366,1.00754 z"
       id="path877"
       inkscape:connector-curvature="0"
       sodipodi:nodetypes="sssssssssss" />
    <path
       style="fill:#000000;stroke:none;stroke-width:0.26458332px;stroke-linecap:butt;stroke-linejoin:miter;stroke-opacity:1"
       d="m 9.0239903,283.28155 c 0.2516264,0.37674 0.5638698,0.46711 1.1048497,0.34695 0.319399,-0.0709 1.461747,1.00315 0.630558,2.32159 -0.8311901,1.31844 -0.143309,2.49357 0.08599,2.78018 0.229293,0.28662 0.343941,-0.17196 0.343941,-0.17196 0,0 -0.65922,-0.68788 -0.65922,-1.3471 0,-0.65922 0.917174,-1.08914 0.831189,-2.0923 -0.08599,-1.00316 -0.835323,-1.83022 -1.035954,-1.88754 -0.8212013,0.26802 -1.1037768,0.0948 -1.2000678,-0.0893 z"
       id="path900"
       inkscape:connector-curvature="0"
       sodipodi:nodetypes="cssccscccc" />
  </g>
</svg>
